<svg xmlns="http://www.w3.org/2000/svg" width="980" height="500" viewBox="0 0 980 500">
<rect width="100%" height="100%" fill="#ffffff"/>
<style>.axis{stroke:#455a64;stroke-width:1}.grid{stroke:#d6dde1;stroke-width:1}</style>
<text x="32.0" y="28.0" font-size="18" font-family="Arial, sans-serif" text-anchor="start" fill="#263238">Parameter/performance correlation by domain</text>
<text x="32.0" y="48.0" font-size="12" font-family="Arial, sans-serif" text-anchor="start" fill="#263238">Bars show correlation between total parameter count and three-judge domain mean</text>
<line class="grid" x1="84" y1="386.0" x2="884" y2="386.0"/>
<text x="74.0" y="390.0" font-size="11" font-family="Arial, sans-serif" text-anchor="end" fill="#263238">-0.1</text>
<line class="grid" x1="84" y1="353.0" x2="884" y2="353.0"/>
<text x="74.0" y="357.0" font-size="11" font-family="Arial, sans-serif" text-anchor="end" fill="#263238">0.0</text>
<line class="grid" x1="84" y1="254.0" x2="884" y2="254.0"/>
<text x="74.0" y="258.0" font-size="11" font-family="Arial, sans-serif" text-anchor="end" fill="#263238">0.3</text>
<line class="grid" x1="84" y1="155.0" x2="884" y2="155.0"/>
<text x="74.0" y="159.0" font-size="11" font-family="Arial, sans-serif" text-anchor="end" fill="#263238">0.6</text>
<line class="grid" x1="84" y1="56.0" x2="884" y2="56.0"/>
<text x="74.0" y="60.0" font-size="11" font-family="Arial, sans-serif" text-anchor="end" fill="#263238">0.9</text>
<line class="axis" x1="84" y1="353.0" x2="884" y2="353.0"/>
<rect x="96.7" y="143.4" width="42.3" height="209.6" fill="#0b7285"/>
<rect x="143.3" y="178.6" width="42.3" height="174.4" fill="#862e9c"/>
<text x="141.1" y="408.0" font-size="12" font-family="Arial, sans-serif" text-anchor="middle" fill="#263238">D1</text>
<text x="141.1" y="424.0" font-size="9" font-family="Arial, sans-serif" text-anchor="middle" fill="#263238">ancient languages</text>
<rect x="211.0" y="109.4" width="42.3" height="243.6" fill="#0b7285"/>
<rect x="257.5" y="83.1" width="42.3" height="269.9" fill="#862e9c"/>
<text x="255.4" y="408.0" font-size="12" font-family="Arial, sans-serif" text-anchor="middle" fill="#263238">D2</text>
<text x="255.4" y="424.0" font-size="9" font-family="Arial, sans-serif" text-anchor="middle" fill="#263238">biblical knowledge</text>
<rect x="325.3" y="202.6" width="42.3" height="150.4" fill="#0b7285"/>
<rect x="371.8" y="221.0" width="42.3" height="132.0" fill="#862e9c"/>
<text x="369.7" y="408.0" font-size="12" font-family="Arial, sans-serif" text-anchor="middle" fill="#263238">D3</text>
<text x="369.7" y="424.0" font-size="9" font-family="Arial, sans-serif" text-anchor="middle" fill="#263238">patristic knowledge</text>
<rect x="439.6" y="276.3" width="42.3" height="76.7" fill="#0b7285"/>
<rect x="486.1" y="278.8" width="42.3" height="74.2" fill="#862e9c"/>
<text x="484.0" y="408.0" font-size="12" font-family="Arial, sans-serif" text-anchor="middle" fill="#263238">D4</text>
<text x="484.0" y="424.0" font-size="9" font-family="Arial, sans-serif" text-anchor="middle" fill="#263238">early christian history</text>
<rect x="553.8" y="334.0" width="42.3" height="19.0" fill="#0b7285"/>
<rect x="600.4" y="340.6" width="42.3" height="12.4" fill="#862e9c"/>
<text x="598.3" y="408.0" font-size="12" font-family="Arial, sans-serif" text-anchor="middle" fill="#263238">D5</text>
<text x="598.3" y="424.0" font-size="9" font-family="Arial, sans-serif" text-anchor="middle" fill="#263238">theological knowledge</text>
<rect x="668.1" y="289.1" width="42.3" height="63.9" fill="#0b7285"/>
<rect x="714.7" y="262.2" width="42.3" height="90.8" fill="#862e9c"/>
<text x="712.6" y="408.0" font-size="12" font-family="Arial, sans-serif" text-anchor="middle" fill="#263238">D6</text>
<text x="712.6" y="424.0" font-size="9" font-family="Arial, sans-serif" text-anchor="middle" fill="#263238">heresiological knowledge</text>
<rect x="782.4" y="214.6" width="42.3" height="138.4" fill="#0b7285"/>
<rect x="829.0" y="209.2" width="42.3" height="143.8" fill="#862e9c"/>
<text x="826.9" y="408.0" font-size="12" font-family="Arial, sans-serif" text-anchor="middle" fill="#263238">D7</text>
<text x="826.9" y="424.0" font-size="9" font-family="Arial, sans-serif" text-anchor="middle" fill="#263238">marcion studies</text>
<text x="484.0" y="466.0" font-size="13" font-family="Arial, sans-serif" text-anchor="middle" fill="#263238">Domain</text>
<text x="22" y="221.0" font-size="13" font-family="Arial, sans-serif" text-anchor="middle" fill="#263238" transform="rotate(-90 22 221.0)">Correlation</text>
<rect x="694" y="64" width="12" height="12" fill="#0b7285"/>
<text x="712.0" y="75.0" font-size="11" font-family="Arial, sans-serif" text-anchor="start" fill="#263238">Pearson r on log10(total)</text>
<rect x="694" y="84" width="12" height="12" fill="#862e9c"/>
<text x="712.0" y="95.0" font-size="11" font-family="Arial, sans-serif" text-anchor="start" fill="#263238">Spearman rho on total</text>
</svg>
